<?xml version="1.0" encoding="UTF-8" standalone="no"?>
<!DOCTYPE svg PUBLIC "-//W3C//DTD SVG 1.1//EN"
 "http://www.w3.org/Graphics/SVG/1.1/DTD/svg11.dtd">
<!-- Generated by graphviz version 2.43.0 (0)
 -->
<!-- Title: G Pages: 1 -->
<svg width="314pt" height="116pt"
 viewBox="0.00 0.00 314.00 116.00" xmlns="http://www.w3.org/2000/svg" xmlns:xlink="http://www.w3.org/1999/xlink">
<g id="graph0" class="graph" transform="scale(1 1) rotate(0) translate(4 112)">
<title>G</title>
<polygon fill="white" stroke="transparent" points="-4,4 -4,-112 310,-112 310,4 -4,4"/>
<!-- 3 -->
<g id="node1" class="node">
<title>3</title>
<text text-anchor="middle" x="32" y="-18.3" font-family="Times,serif" font-size="14.00">START</text>
</g>
<!-- 0 -->
<g id="node2" class="node">
<title>0</title>
<ellipse fill="none" stroke="black" cx="119" cy="-22" rx="18" ry="18"/>
<text text-anchor="middle" x="119" y="-18.3" font-family="Times,serif" font-size="14.00">0</text>
</g>
<!-- 3&#45;&gt;0 -->
<g id="edge1" class="edge">
<title>3&#45;&gt;0</title>
<path fill="none" stroke="black" d="M64.17,-22C72.83,-22 82.17,-22 90.6,-22"/>
<polygon fill="black" stroke="black" points="90.67,-25.5 100.67,-22 90.67,-18.5 90.67,-25.5"/>
</g>
<!-- 1 -->
<g id="node3" class="node">
<title>1</title>
<ellipse fill="none" stroke="black" cx="200" cy="-57" rx="18" ry="18"/>
<text text-anchor="middle" x="200" y="-53.3" font-family="Times,serif" font-size="14.00">1</text>
</g>
<!-- 0&#45;&gt;1 -->
<g id="edge2" class="edge">
<title>0&#45;&gt;1</title>
<path fill="none" stroke="black" d="M135.99,-29.08C146.87,-33.91 161.51,-40.39 173.93,-45.89"/>
<polygon fill="black" stroke="black" points="172.75,-49.2 183.31,-50.05 175.58,-42.8 172.75,-49.2"/>
<text text-anchor="middle" x="159.5" y="-43.8" font-family="Times,serif" font-size="14.00">a</text>
</g>
<!-- 1&#45;&gt;1 -->
<g id="edge3" class="edge">
<title>1&#45;&gt;1</title>
<path fill="none" stroke="black" d="M192.97,-73.66C191.41,-83.62 193.75,-93 200,-93 204,-93 206.4,-89.15 207.2,-83.77"/>
<polygon fill="black" stroke="black" points="210.7,-83.6 207.03,-73.66 203.7,-83.72 210.7,-83.6"/>
<text text-anchor="middle" x="200" y="-96.8" font-family="Times,serif" font-size="14.00">b</text>
</g>
<!-- 2 -->
<g id="node4" class="node">
<title>2</title>
<ellipse fill="none" stroke="black" cx="284" cy="-22" rx="18" ry="18"/>
<ellipse fill="none" stroke="black" cx="284" cy="-22" rx="22" ry="22"/>
<text text-anchor="middle" x="284" y="-18.3" font-family="Times,serif" font-size="14.00">2</text>
</g>
<!-- 1&#45;&gt;2 -->
<g id="edge4" class="edge">
<title>1&#45;&gt;2</title>
<path fill="none" stroke="black" d="M216.81,-50.25C227.42,-45.72 241.7,-39.63 254.28,-34.26"/>
<polygon fill="black" stroke="black" points="255.65,-37.48 263.48,-30.33 252.9,-31.04 255.65,-37.48"/>
<text text-anchor="middle" x="240" y="-44.8" font-family="Times,serif" font-size="14.00">c</text>
</g>
<!-- 2&#45;&gt;0 -->
<g id="edge5" class="edge">
<title>2&#45;&gt;0</title>
<path fill="none" stroke="black" d="M261.97,-19.16C249.27,-17.58 232.73,-15.79 218,-15 202.02,-14.14 197.97,-14.1 182,-15 170.56,-15.64 158,-16.95 147.18,-18.26"/>
<polygon fill="black" stroke="black" points="146.54,-14.82 137.06,-19.55 147.42,-21.76 146.54,-14.82"/>
<text text-anchor="middle" x="200" y="-18.8" font-family="Times,serif" font-size="14.00">b</text>
</g>
</g>
</svg>
