<?xml version="1.0" encoding="UTF-8" standalone="no"?>
<!DOCTYPE svg PUBLIC "-//W3C//DTD SVG 1.1//EN"
 "http://www.w3.org/Graphics/SVG/1.1/DTD/svg11.dtd">
<!-- Generated by graphviz version 2.43.0 (0)
 -->
<!-- Title: G Pages: 1 -->
<svg width="333pt" height="112pt"
 viewBox="0.00 0.00 333.00 112.00" xmlns="http://www.w3.org/2000/svg" xmlns:xlink="http://www.w3.org/1999/xlink">
<g id="graph0" class="graph" transform="scale(1 1) rotate(0) translate(4 108)">
<title>G</title>
<polygon fill="white" stroke="transparent" points="-4,4 -4,-108 329,-108 329,4 -4,4"/>
<!-- 3 -->
<g id="node1" class="node">
<title>3</title>
<text text-anchor="middle" x="32" y="-14.3" font-family="Times,serif" font-size="14.00">START</text>
</g>
<!-- 0 -->
<g id="node2" class="node">
<title>0</title>
<ellipse fill="none" stroke="black" cx="119" cy="-18" rx="18" ry="18"/>
<text text-anchor="middle" x="119" y="-14.3" font-family="Times,serif" font-size="14.00">0</text>
</g>
<!-- 3&#45;&gt;0 -->
<g id="edge1" class="edge">
<title>3&#45;&gt;0</title>
<path fill="none" stroke="black" d="M64.17,-18C72.83,-18 82.17,-18 90.6,-18"/>
<polygon fill="black" stroke="black" points="90.67,-21.5 100.67,-18 90.67,-14.5 90.67,-21.5"/>
</g>
<!-- 1 -->
<g id="node3" class="node">
<title>1</title>
<ellipse fill="none" stroke="black" cx="213" cy="-53" rx="18" ry="18"/>
<text text-anchor="middle" x="213" y="-49.3" font-family="Times,serif" font-size="14.00">1</text>
</g>
<!-- 0&#45;&gt;1 -->
<g id="edge2" class="edge">
<title>0&#45;&gt;1</title>
<path fill="none" stroke="black" d="M136.03,-24.1C149.92,-29.38 170.29,-37.13 186.44,-43.27"/>
<polygon fill="black" stroke="black" points="185.26,-46.57 195.85,-46.86 187.75,-40.03 185.26,-46.57"/>
<text text-anchor="middle" x="166" y="-42.8" font-family="Times,serif" font-size="14.00">a/1</text>
</g>
<!-- 1&#45;&gt;1 -->
<g id="edge3" class="edge">
<title>1&#45;&gt;1</title>
<path fill="none" stroke="black" d="M204.98,-69.29C203.05,-79.39 205.72,-89 213,-89 217.66,-89 220.43,-85.06 221.32,-79.57"/>
<polygon fill="black" stroke="black" points="224.81,-79.18 221.02,-69.29 217.81,-79.39 224.81,-79.18"/>
<text text-anchor="middle" x="213" y="-92.8" font-family="Times,serif" font-size="14.00">b/2</text>
</g>
<!-- 2 -->
<g id="node4" class="node">
<title>2</title>
<ellipse fill="none" stroke="black" cx="307" cy="-18" rx="18" ry="18"/>
<text text-anchor="middle" x="307" y="-14.3" font-family="Times,serif" font-size="14.00">2</text>
</g>
<!-- 1&#45;&gt;2 -->
<g id="edge4" class="edge">
<title>1&#45;&gt;2</title>
<path fill="none" stroke="black" d="M230.03,-46.9C243.92,-41.62 264.29,-33.87 280.44,-27.73"/>
<polygon fill="black" stroke="black" points="281.75,-30.97 289.85,-24.14 279.26,-24.43 281.75,-30.97"/>
<text text-anchor="middle" x="260" y="-42.8" font-family="Times,serif" font-size="14.00">c/3</text>
</g>
<!-- 2&#45;&gt;0 -->
<g id="edge5" class="edge">
<title>2&#45;&gt;0</title>
<path fill="none" stroke="black" d="M289.05,-15.96C273.87,-14.25 250.99,-11.93 231,-11 215.02,-10.26 210.98,-10.26 195,-11 179.07,-11.74 161.31,-13.36 147.06,-14.86"/>
<polygon fill="black" stroke="black" points="146.51,-11.4 136.95,-15.96 147.27,-18.36 146.51,-11.4"/>
<text text-anchor="middle" x="213" y="-14.8" font-family="Times,serif" font-size="14.00">b/4</text>
</g>
</g>
</svg>
