<?xml version="1.0" encoding="UTF-8" standalone="no"?>
<!DOCTYPE svg PUBLIC "-//W3C//DTD SVG 1.1//EN"
 "http://www.w3.org/Graphics/SVG/1.1/DTD/svg11.dtd">
<!-- Generated by graphviz version 2.43.0 (0)
 -->
<!-- Title: G Pages: 1 -->
<svg width="353pt" height="134pt"
 viewBox="0.00 0.00 352.69 134.35" xmlns="http://www.w3.org/2000/svg" xmlns:xlink="http://www.w3.org/1999/xlink">
<g id="graph0" class="graph" transform="scale(1 1) rotate(0) translate(4 130.35)">
<title>G</title>
<polygon fill="white" stroke="transparent" points="-4,4 -4,-130.35 348.69,-130.35 348.69,4 -4,4"/>
<!-- 3 -->
<g id="node1" class="node">
<title>3</title>
<text text-anchor="middle" x="32" y="-22.3" font-family="Times,serif" font-size="14.00">START</text>
</g>
<!-- 0 -->
<g id="node2" class="node">
<title>0</title>
<ellipse fill="none" stroke="black" cx="127" cy="-26" rx="26" ry="26"/>
<text text-anchor="middle" x="127" y="-22.3" font-family="Times,serif" font-size="14.00">0/X</text>
</g>
<!-- 3&#45;&gt;0 -->
<g id="edge1" class="edge">
<title>3&#45;&gt;0</title>
<path fill="none" stroke="black" d="M64.23,-26C72.7,-26 81.94,-26 90.63,-26"/>
<polygon fill="black" stroke="black" points="90.87,-29.5 100.87,-26 90.87,-22.5 90.87,-29.5"/>
</g>
<!-- 1 -->
<g id="node3" class="node">
<title>1</title>
<ellipse fill="none" stroke="black" cx="223.34" cy="-68" rx="25.2" ry="25.2"/>
<text text-anchor="middle" x="223.34" y="-64.3" font-family="Times,serif" font-size="14.00">1/Y</text>
</g>
<!-- 0&#45;&gt;1 -->
<g id="edge2" class="edge">
<title>0&#45;&gt;1</title>
<path fill="none" stroke="black" d="M151.32,-36.38C163.15,-41.64 177.69,-48.12 190.53,-53.83"/>
<polygon fill="black" stroke="black" points="189.38,-57.15 199.94,-58.02 192.23,-50.76 189.38,-57.15"/>
<text text-anchor="middle" x="175.5" y="-51.8" font-family="Times,serif" font-size="14.00">a</text>
</g>
<!-- 1&#45;&gt;1 -->
<g id="edge3" class="edge">
<title>1&#45;&gt;1</title>
<path fill="none" stroke="black" d="M214.82,-92.07C214.12,-102.45 216.96,-111.35 223.34,-111.35 227.43,-111.35 230.06,-107.7 231.25,-102.34"/>
<polygon fill="black" stroke="black" points="234.76,-102.26 231.86,-92.07 227.77,-101.84 234.76,-102.26"/>
<text text-anchor="middle" x="223.34" y="-115.15" font-family="Times,serif" font-size="14.00">b</text>
</g>
<!-- 2 -->
<g id="node4" class="node">
<title>2</title>
<ellipse fill="none" stroke="black" cx="318.69" cy="-26" rx="26" ry="26"/>
<text text-anchor="middle" x="318.69" y="-22.3" font-family="Times,serif" font-size="14.00">2/Z</text>
</g>
<!-- 1&#45;&gt;2 -->
<g id="edge4" class="edge">
<title>1&#45;&gt;2</title>
<path fill="none" stroke="black" d="M246.94,-57.83C258.46,-52.65 272.68,-46.25 285.34,-40.55"/>
<polygon fill="black" stroke="black" points="286.97,-43.66 294.65,-36.36 284.1,-37.27 286.97,-43.66"/>
<text text-anchor="middle" x="270.69" y="-51.8" font-family="Times,serif" font-size="14.00">c</text>
</g>
<!-- 2&#45;&gt;0 -->
<g id="edge5" class="edge">
<title>2&#45;&gt;0</title>
<path fill="none" stroke="black" d="M292.82,-22.86C279.72,-21.36 263.36,-19.74 248.69,-19 226.19,-17.86 220.5,-17.88 198,-19 186.63,-19.56 174.26,-20.65 163.12,-21.79"/>
<polygon fill="black" stroke="black" points="162.46,-18.34 152.9,-22.9 163.22,-25.3 162.46,-18.34"/>
<text text-anchor="middle" x="223.34" y="-22.8" font-family="Times,serif" font-size="14.00">b</text>
</g>
</g>
</svg>
