<svg xmlns="http://www.w3.org/2000/svg" xmlns:xlink="http://www.w3.org/1999/xlink" xmlns:s="https://github.com/nturley/netlistsvg" width="249" height="145">
  <style>svg {
    stroke:#000;
    fill:none;
  }
  text {
    fill:#000;
    stroke:none;
    font-size:10px;
    font-weight: bold;
    font-family: "Courier New", monospace;
  }
  .nodelabel {
    text-anchor: middle;
  }
  .inputPortLabel {
    text-anchor: end;
  }
  .splitjoinBody {
    fill:#000;
  }</style>
  <g s:type="and" transform="translate(142,27)" s:width="30" s:height="25" id="cell_$and$demux_1to2.sv:6$2">
    <s:alias val="$and"/>
    <s:alias val="$logic_and"/>
    <s:alias val="$_AND_"/>
    <path d="M0,0 L0,25 L15,25 A15 12.5 0 0 0 15,0 Z" class="cell_$and$demux_1to2.sv:6$2"/>
    <g s:x="0" s:y="5" s:pid="A"/>
    <g s:x="0" s:y="20" s:pid="B"/>
    <g s:x="30" s:y="12.5" s:pid="Y"/>
  </g>
  <g s:type="and" transform="translate(142,92)" s:width="30" s:height="25" id="cell_$and$demux_1to2.sv:7$3">
    <s:alias val="$and"/>
    <s:alias val="$logic_and"/>
    <s:alias val="$_AND_"/>
    <path d="M0,0 L0,25 L15,25 A15 12.5 0 0 0 15,0 Z" class="cell_$and$demux_1to2.sv:7$3"/>
    <g s:x="0" s:y="5" s:pid="A"/>
    <g s:x="0" s:y="20" s:pid="B"/>
    <g s:x="30" s:y="12.5" s:pid="Y"/>
  </g>
  <g s:type="not" transform="translate(77,22)" s:width="30" s:height="20" id="cell_$logic_not$demux_1to2.sv:6$1">
    <s:alias val="$_NOT_"/>
    <s:alias val="$not"/>
    <s:alias val="$logic_not"/>
    <path d="M0,0 L0,20 L20,10 Z" class="cell_$logic_not$demux_1to2.sv:6$1"/>
    <circle cx="23" cy="10" r="3" class="cell_$logic_not$demux_1to2.sv:6$1"/>
    <g s:x="0" s:y="10" s:pid="A"/>
    <g s:x="25" s:y="10" s:pid="Y"/>
  </g>
  <g s:type="inputExt" transform="translate(77,102)" s:width="30" s:height="20" id="cell_in">
    <text x="15" y="-4" class="nodelabel cell_in" s:attribute="ref">in</text>
    <s:alias val="$_inputExt_"/>
    <path d="M0,0 L0,20 L15,20 L30,10 L15,0 Z" class="cell_in"/>
    <g s:x="28" s:y="10" s:pid="Y"/>
  </g>
  <g s:type="inputExt" transform="translate(12,22)" s:width="30" s:height="20" id="cell_sel">
    <text x="15" y="-4" class="nodelabel cell_sel" s:attribute="ref">sel</text>
    <s:alias val="$_inputExt_"/>
    <path d="M0,0 L0,20 L15,20 L30,10 L15,0 Z" class="cell_sel"/>
    <g s:x="28" s:y="10" s:pid="Y"/>
  </g>
  <g s:type="outputExt" transform="translate(207,29.5)" s:width="30" s:height="20" id="cell_out0">
    <text x="15" y="-4" class="nodelabel cell_out0" s:attribute="ref">out0</text>
    <s:alias val="$_outputExt_"/>
    <path d="M30,0 L30,20 L15,20 L0,10 L15,0 Z" class="cell_out0"/>
    <g s:x="0" s:y="10" s:pid="A"/>
  </g>
  <g s:type="outputExt" transform="translate(207,94.5)" s:width="30" s:height="20" id="cell_out1">
    <text x="15" y="-4" class="nodelabel cell_out1" s:attribute="ref">out1</text>
    <s:alias val="$_outputExt_"/>
    <path d="M30,0 L30,20 L15,20 L0,10 L15,0 Z" class="cell_out1"/>
    <g s:x="0" s:y="10" s:pid="A"/>
  </g>
  <line x1="102" x2="142" y1="32" y2="32" class="net_6"/>
  <line x1="105" x2="117" y1="112" y2="112" class="net_2"/>
  <line x1="117" x2="117" y1="112" y2="47" class="net_2"/>
  <circle cx="117" cy="112" r="2" style="fill:#000" class="net_2"/>
  <line x1="117" x2="142" y1="47" y2="47" class="net_2"/>
  <line x1="105" x2="142" y1="112" y2="112" class="net_2"/>
  <line x1="40" x2="52" y1="32" y2="32" class="net_3"/>
  <line x1="52" x2="52" y1="32" y2="132" class="net_3"/>
  <line x1="52" x2="127" y1="132" y2="132" class="net_3"/>
  <line x1="127" x2="127" y1="132" y2="97" class="net_3"/>
  <circle cx="52" cy="32" r="2" style="fill:#000" class="net_3"/>
  <line x1="127" x2="142" y1="97" y2="97" class="net_3"/>
  <line x1="40" x2="77" y1="32" y2="32" class="net_3"/>
  <line x1="172" x2="207" y1="39.5" y2="39.5" class="net_4"/>
  <line x1="172" x2="207" y1="104.5" y2="104.5" class="net_5"/>
</svg>
